<?xml version="1.0" encoding="utf-8"?>
<svg version="1.1" baseProfile="full" width="800" height="600" xmlns="http://www.w3.org/2000/svg">
<clipPath>
<rect x="0" y="0" width="800" height="600" fill="rgb(0,0,0)" />
</clipPath>
<text x="270" y="34" fill="rgb(0,0,0)">
PriorityQueue.pop() Versus vector methods</text>
<line x1="158.858" y1="50" x2="158.858" y2="550" stroke="rgb(200,200,200)" />
<line x1="222.835" y1="50" x2="222.835" y2="550" stroke="rgb(200,200,200)" />
<line x1="286.811" y1="50" x2="286.811" y2="550" stroke="rgb(200,200,200)" />
<line x1="350.787" y1="50" x2="350.787" y2="550" stroke="rgb(200,200,200)" />
<line x1="414.764" y1="50" x2="414.764" y2="550" stroke="rgb(200,200,200)" />
<line x1="478.74" y1="50" x2="478.74" y2="550" stroke="rgb(200,200,200)" />
<line x1="542.717" y1="50" x2="542.717" y2="550" stroke="rgb(200,200,200)" />
<line x1="606.693" y1="50" x2="606.693" y2="550" stroke="rgb(200,200,200)" />
<line x1="670.669" y1="50" x2="670.669" y2="550" stroke="rgb(200,200,200)" />
<line x1="734.646" y1="50" x2="734.646" y2="550" stroke="rgb(200,200,200)" />
<line x1="100" y1="550" x2="750" y2="550" stroke="rgb(200,200,200)" />
<line x1="100" y1="498.038" x2="750" y2="498.038" stroke="rgb(200,200,200)" />
<line x1="100" y1="446.077" x2="750" y2="446.077" stroke="rgb(200,200,200)" />
<line x1="100" y1="394.115" x2="750" y2="394.115" stroke="rgb(200,200,200)" />
<line x1="100" y1="342.154" x2="750" y2="342.154" stroke="rgb(200,200,200)" />
<line x1="100" y1="290.192" x2="750" y2="290.192" stroke="rgb(200,200,200)" />
<line x1="100" y1="238.231" x2="750" y2="238.231" stroke="rgb(200,200,200)" />
<line x1="100" y1="186.269" x2="750" y2="186.269" stroke="rgb(200,200,200)" />
<line x1="100" y1="134.308" x2="750" y2="134.308" stroke="rgb(200,200,200)" />
<line x1="100" y1="82.3461" x2="750" y2="82.3461" stroke="rgb(200,200,200)" />
<line x1="100" y1="550" x2="750" y2="550" stroke="rgb(0,0,0)" />
<line x1="107.677" y1="550" x2="107.677" y2="554" stroke="rgb(0,0,0)" />
<line x1="120.472" y1="550" x2="120.472" y2="554" stroke="rgb(0,0,0)" />
<line x1="133.268" y1="550" x2="133.268" y2="554" stroke="rgb(0,0,0)" />
<line x1="146.063" y1="550" x2="146.063" y2="554" stroke="rgb(0,0,0)" />
<text x="158" y="578" fill="rgb(0,0,0)">
200</text>
<line x1="158.858" y1="550" x2="158.858" y2="558" stroke="rgb(0,0,0)" />
<line x1="171.654" y1="550" x2="171.654" y2="554" stroke="rgb(0,0,0)" />
<line x1="184.449" y1="550" x2="184.449" y2="554" stroke="rgb(0,0,0)" />
<line x1="197.244" y1="550" x2="197.244" y2="554" stroke="rgb(0,0,0)" />
<line x1="210.039" y1="550" x2="210.039" y2="554" stroke="rgb(0,0,0)" />
<text x="222" y="578" fill="rgb(0,0,0)">
400</text>
<line x1="222.835" y1="550" x2="222.835" y2="558" stroke="rgb(0,0,0)" />
<line x1="235.63" y1="550" x2="235.63" y2="554" stroke="rgb(0,0,0)" />
<line x1="248.425" y1="550" x2="248.425" y2="554" stroke="rgb(0,0,0)" />
<line x1="261.22" y1="550" x2="261.22" y2="554" stroke="rgb(0,0,0)" />
<line x1="274.016" y1="550" x2="274.016" y2="554" stroke="rgb(0,0,0)" />
<text x="286" y="578" fill="rgb(0,0,0)">
600</text>
<line x1="286.811" y1="550" x2="286.811" y2="558" stroke="rgb(0,0,0)" />
<line x1="299.606" y1="550" x2="299.606" y2="554" stroke="rgb(0,0,0)" />
<line x1="312.402" y1="550" x2="312.402" y2="554" stroke="rgb(0,0,0)" />
<line x1="325.197" y1="550" x2="325.197" y2="554" stroke="rgb(0,0,0)" />
<line x1="337.992" y1="550" x2="337.992" y2="554" stroke="rgb(0,0,0)" />
<text x="350" y="578" fill="rgb(0,0,0)">
800</text>
<line x1="350.787" y1="550" x2="350.787" y2="558" stroke="rgb(0,0,0)" />
<line x1="363.583" y1="550" x2="363.583" y2="554" stroke="rgb(0,0,0)" />
<line x1="376.378" y1="550" x2="376.378" y2="554" stroke="rgb(0,0,0)" />
<line x1="389.173" y1="550" x2="389.173" y2="554" stroke="rgb(0,0,0)" />
<line x1="401.969" y1="550" x2="401.969" y2="554" stroke="rgb(0,0,0)" />
<text x="414" y="578" fill="rgb(0,0,0)">
1000</text>
<line x1="414.764" y1="550" x2="414.764" y2="558" stroke="rgb(0,0,0)" />
<line x1="427.559" y1="550" x2="427.559" y2="554" stroke="rgb(0,0,0)" />
<line x1="440.354" y1="550" x2="440.354" y2="554" stroke="rgb(0,0,0)" />
<line x1="453.15" y1="550" x2="453.15" y2="554" stroke="rgb(0,0,0)" />
<line x1="465.945" y1="550" x2="465.945" y2="554" stroke="rgb(0,0,0)" />
<text x="478" y="578" fill="rgb(0,0,0)">
1200</text>
<line x1="478.74" y1="550" x2="478.74" y2="558" stroke="rgb(0,0,0)" />
<line x1="491.535" y1="550" x2="491.535" y2="554" stroke="rgb(0,0,0)" />
<line x1="504.331" y1="550" x2="504.331" y2="554" stroke="rgb(0,0,0)" />
<line x1="517.126" y1="550" x2="517.126" y2="554" stroke="rgb(0,0,0)" />
<line x1="529.921" y1="550" x2="529.921" y2="554" stroke="rgb(0,0,0)" />
<text x="542" y="578" fill="rgb(0,0,0)">
1400</text>
<line x1="542.717" y1="550" x2="542.717" y2="558" stroke="rgb(0,0,0)" />
<line x1="555.512" y1="550" x2="555.512" y2="554" stroke="rgb(0,0,0)" />
<line x1="568.307" y1="550" x2="568.307" y2="554" stroke="rgb(0,0,0)" />
<line x1="581.102" y1="550" x2="581.102" y2="554" stroke="rgb(0,0,0)" />
<line x1="593.898" y1="550" x2="593.898" y2="554" stroke="rgb(0,0,0)" />
<text x="606" y="578" fill="rgb(0,0,0)">
1600</text>
<line x1="606.693" y1="550" x2="606.693" y2="558" stroke="rgb(0,0,0)" />
<line x1="619.488" y1="550" x2="619.488" y2="554" stroke="rgb(0,0,0)" />
<line x1="632.283" y1="550" x2="632.283" y2="554" stroke="rgb(0,0,0)" />
<line x1="645.079" y1="550" x2="645.079" y2="554" stroke="rgb(0,0,0)" />
<line x1="657.874" y1="550" x2="657.874" y2="554" stroke="rgb(0,0,0)" />
<text x="670" y="578" fill="rgb(0,0,0)">
1800</text>
<line x1="670.669" y1="550" x2="670.669" y2="558" stroke="rgb(0,0,0)" />
<line x1="683.465" y1="550" x2="683.465" y2="554" stroke="rgb(0,0,0)" />
<line x1="696.26" y1="550" x2="696.26" y2="554" stroke="rgb(0,0,0)" />
<line x1="709.055" y1="550" x2="709.055" y2="554" stroke="rgb(0,0,0)" />
<line x1="721.85" y1="550" x2="721.85" y2="554" stroke="rgb(0,0,0)" />
<text x="734" y="578" fill="rgb(0,0,0)">
2000</text>
<line x1="734.646" y1="550" x2="734.646" y2="558" stroke="rgb(0,0,0)" />
<line x1="747.441" y1="550" x2="747.441" y2="554" stroke="rgb(0,0,0)" />
<text x="409" y="594" fill="rgb(0,0,0)">
N</text>
<line x1="100" y1="50" x2="100" y2="550" stroke="rgb(0,0,0)" />
<text x="58" y="558" fill="rgb(0,0,0)">
0</text>
<line x1="100" y1="550" x2="92" y2="550" stroke="rgb(0,0,0)" />
<line x1="100" y1="539.608" x2="96" y2="539.608" stroke="rgb(0,0,0)" />
<line x1="100" y1="529.215" x2="96" y2="529.215" stroke="rgb(0,0,0)" />
<line x1="100" y1="518.823" x2="96" y2="518.823" stroke="rgb(0,0,0)" />
<line x1="100" y1="508.431" x2="96" y2="508.431" stroke="rgb(0,0,0)" />
<text x="40" y="506" fill="rgb(0,0,0)">
2000</text>
<line x1="100" y1="498.038" x2="92" y2="498.038" stroke="rgb(0,0,0)" />
<line x1="100" y1="487.646" x2="96" y2="487.646" stroke="rgb(0,0,0)" />
<line x1="100" y1="477.254" x2="96" y2="477.254" stroke="rgb(0,0,0)" />
<line x1="100" y1="466.862" x2="96" y2="466.862" stroke="rgb(0,0,0)" />
<line x1="100" y1="456.469" x2="96" y2="456.469" stroke="rgb(0,0,0)" />
<text x="40" y="454" fill="rgb(0,0,0)">
4000</text>
<line x1="100" y1="446.077" x2="92" y2="446.077" stroke="rgb(0,0,0)" />
<line x1="100" y1="435.685" x2="96" y2="435.685" stroke="rgb(0,0,0)" />
<line x1="100" y1="425.292" x2="96" y2="425.292" stroke="rgb(0,0,0)" />
<line x1="100" y1="414.9" x2="96" y2="414.9" stroke="rgb(0,0,0)" />
<line x1="100" y1="404.508" x2="96" y2="404.508" stroke="rgb(0,0,0)" />
<text x="40" y="402" fill="rgb(0,0,0)">
6000</text>
<line x1="100" y1="394.115" x2="92" y2="394.115" stroke="rgb(0,0,0)" />
<line x1="100" y1="383.723" x2="96" y2="383.723" stroke="rgb(0,0,0)" />
<line x1="100" y1="373.331" x2="96" y2="373.331" stroke="rgb(0,0,0)" />
<line x1="100" y1="362.938" x2="96" y2="362.938" stroke="rgb(0,0,0)" />
<line x1="100" y1="352.546" x2="96" y2="352.546" stroke="rgb(0,0,0)" />
<text x="40" y="350" fill="rgb(0,0,0)">
8000</text>
<line x1="100" y1="342.154" x2="92" y2="342.154" stroke="rgb(0,0,0)" />
<line x1="100" y1="331.761" x2="96" y2="331.761" stroke="rgb(0,0,0)" />
<line x1="100" y1="321.369" x2="96" y2="321.369" stroke="rgb(0,0,0)" />
<line x1="100" y1="310.977" x2="96" y2="310.977" stroke="rgb(0,0,0)" />
<line x1="100" y1="300.585" x2="96" y2="300.585" stroke="rgb(0,0,0)" />
<text x="36" y="298" fill="rgb(0,0,0)">
10000</text>
<line x1="100" y1="290.192" x2="92" y2="290.192" stroke="rgb(0,0,0)" />
<line x1="100" y1="279.8" x2="96" y2="279.8" stroke="rgb(0,0,0)" />
<line x1="100" y1="269.408" x2="96" y2="269.408" stroke="rgb(0,0,0)" />
<line x1="100" y1="259.015" x2="96" y2="259.015" stroke="rgb(0,0,0)" />
<line x1="100" y1="248.623" x2="96" y2="248.623" stroke="rgb(0,0,0)" />
<text x="36" y="246" fill="rgb(0,0,0)">
12000</text>
<line x1="100" y1="238.231" x2="92" y2="238.231" stroke="rgb(0,0,0)" />
<line x1="100" y1="227.838" x2="96" y2="227.838" stroke="rgb(0,0,0)" />
<line x1="100" y1="217.446" x2="96" y2="217.446" stroke="rgb(0,0,0)" />
<line x1="100" y1="207.054" x2="96" y2="207.054" stroke="rgb(0,0,0)" />
<line x1="100" y1="196.661" x2="96" y2="196.661" stroke="rgb(0,0,0)" />
<text x="36" y="194" fill="rgb(0,0,0)">
14000</text>
<line x1="100" y1="186.269" x2="92" y2="186.269" stroke="rgb(0,0,0)" />
<line x1="100" y1="175.877" x2="96" y2="175.877" stroke="rgb(0,0,0)" />
<line x1="100" y1="165.485" x2="96" y2="165.485" stroke="rgb(0,0,0)" />
<line x1="100" y1="155.092" x2="96" y2="155.092" stroke="rgb(0,0,0)" />
<line x1="100" y1="144.7" x2="96" y2="144.7" stroke="rgb(0,0,0)" />
<text x="36" y="142" fill="rgb(0,0,0)">
16000</text>
<line x1="100" y1="134.308" x2="92" y2="134.308" stroke="rgb(0,0,0)" />
<line x1="100" y1="123.915" x2="96" y2="123.915" stroke="rgb(0,0,0)" />
<line x1="100" y1="113.523" x2="96" y2="113.523" stroke="rgb(0,0,0)" />
<line x1="100" y1="103.131" x2="96" y2="103.131" stroke="rgb(0,0,0)" />
<line x1="100" y1="92.7384" x2="96" y2="92.7384" stroke="rgb(0,0,0)" />
<text x="36" y="90" fill="rgb(0,0,0)">
18000</text>
<line x1="100" y1="82.3461" x2="92" y2="82.3461" stroke="rgb(0,0,0)" />
<line x1="100" y1="71.9538" x2="96" y2="71.9538" stroke="rgb(0,0,0)" />
<line x1="100" y1="61.5614" x2="96" y2="61.5614" stroke="rgb(0,0,0)" />
<line x1="100" y1="51.1691" x2="96" y2="51.1691" stroke="rgb(0,0,0)" />
<text x="36" y="370" transform="rotate(-90,36,370)">Time (microseconds)</text>
<text x="120" y="66" fill="rgb(200,0,100)">
PriorityQueue.pop()</text>
<text x="120" y="98" fill="rgb(100,20,220)">
vector equivalent</text>
<clipPath>
<rect x="100" y="50" width="650" height="500" fill="rgb(0,0,0)" />
</clipPath>
<line x1="100" y1="549.948" x2="105.118" y2="549.818" stroke="rgb(200,0,100)" />
<line x1="105.118" y1="549.818" x2="115.354" y2="549.584" stroke="rgb(200,0,100)" />
<line x1="115.354" y1="549.584" x2="135.827" y2="548.311" stroke="rgb(200,0,100)" />
<line x1="135.827" y1="548.311" x2="176.772" y2="547.402" stroke="rgb(200,0,100)" />
<line x1="176.772" y1="547.402" x2="258.661" y2="544.154" stroke="rgb(200,0,100)" />
<line x1="258.661" y1="544.154" x2="422.441" y2="534.126" stroke="rgb(200,0,100)" />
<line x1="422.441" y1="534.126" x2="750" y2="520.382" stroke="rgb(200,0,100)" />
<line x1="100" y1="549.48" x2="105.118" y2="549.039" stroke="rgb(100,20,220)" />
<line x1="105.118" y1="549.039" x2="115.354" y2="547.87" stroke="rgb(100,20,220)" />
<line x1="115.354" y1="547.87" x2="135.827" y2="544.648" stroke="rgb(100,20,220)" />
<line x1="135.827" y1="544.648" x2="176.772" y2="537.503" stroke="rgb(100,20,220)" />
<line x1="176.772" y1="537.503" x2="258.661" y2="512.094" stroke="rgb(100,20,220)" />
<line x1="258.661" y1="512.094" x2="422.441" y2="378.527" stroke="rgb(100,20,220)" />
<line x1="422.441" y1="378.527" x2="750" y2="50" stroke="rgb(100,20,220)" />
</svg>

